<svg width="667" height="223" viewBox="0 0 667 223" fill="none" xmlns="http://www.w3.org/2000/svg">
<g clip-path="url(#clip0_296_1982)">
<path d="M106.65 48.94H51.73V64.91H106.65V48.94Z" fill="black"/>
<path d="M185.2 180.57L169.97 55.96C169.47 51.96 166.06 48.94 162.04 48.94H117.7V64.91H154.96L169.34 182.52C169.88 186.83 168.58 191.01 165.68 194.29C162.8 197.55 158.8 199.34 154.42 199.34H30.9799C26.6199 199.34 22.6299 197.55 19.7299 194.29C16.8499 191.01 15.5499 186.83 16.0699 182.51L30.4499 64.9H40.6899V48.93H23.3799C19.3499 48.93 15.9499 51.95 15.4799 55.95L0.229949 180.57C-0.850051 189.35 1.89995 198.21 7.76995 204.85C13.6599 211.49 22.1199 215.3 30.9799 215.3H154.43C163.31 215.3 171.77 211.49 177.64 204.85C183.53 198.21 186.29 189.36 185.21 180.57H185.2Z" fill="black"/>
<path d="M59.7199 114.63C68.2306 114.63 75.1299 107.731 75.1299 99.22C75.1299 90.7093 68.2306 83.81 59.7199 83.81C51.2092 83.81 44.3099 90.7093 44.3099 99.22C44.3099 107.731 51.2092 114.63 59.7199 114.63Z" fill="black"/>
<path d="M125.7 114.63C134.211 114.63 141.11 107.731 141.11 99.22C141.11 90.7093 134.211 83.81 125.7 83.81C117.189 83.81 110.29 90.7093 110.29 99.22C110.29 107.731 117.189 114.63 125.7 114.63Z" fill="black"/>
<path d="M47.94 135.6C46.46 135.6 45.23 136.83 45.31 138.3C46.71 163.26 67.4 183.07 92.71 183.07C118.02 183.07 138.71 163.26 140.11 138.3C140.19 136.82 138.96 135.6 137.48 135.6H47.94Z" fill="black"/>
<path d="M92.7099 0C70.1199 0 51.7399 18.38 51.7399 40.97V99.83H67.7099V40.97C67.7099 27.18 78.9299 15.96 92.7199 15.96C106.51 15.96 117.73 27.18 117.73 40.97V99.83H133.7V40.97C133.68 18.38 115.3 0 92.7099 0Z" fill="black"/>
<path d="M252.94 87.68C259.45 83.94 266.88 82.07 275.2 82.07C284.13 82.07 292.15 84.18 299.27 88.4C306.39 92.63 312 98.57 316.1 106.23C320.2 113.89 322.25 122.79 322.25 132.93C322.25 143.07 320.2 151.87 316.1 159.72C312 167.56 306.35 173.66 299.18 178C292 182.34 284 184.51 275.2 184.51C266.4 184.51 259.12 182.64 252.66 178.9C246.2 175.16 241.35 170.39 238.09 164.6V180.79C238.09 181.95 237.15 182.88 236 182.88H223.71C222.55 182.88 221.62 181.94 221.62 180.79V51.04C221.62 49.88 222.56 48.95 223.71 48.95H236C237.16 48.95 238.09 49.89 238.09 51.04V102.16C241.47 96.25 246.42 91.42 252.93 87.68H252.94ZM300.9 113.38C297.88 107.83 293.81 103.61 288.68 100.71C283.55 97.81 277.91 96.37 271.76 96.37C265.61 96.37 260.14 97.85 255.02 100.8C249.89 103.76 245.79 108.04 242.71 113.65C239.63 119.26 238.09 125.75 238.09 133.11C238.09 140.47 239.63 147.14 242.71 152.75C245.79 158.36 249.89 162.65 255.02 165.6C260.15 168.56 265.73 170.04 271.76 170.04C277.79 170.04 283.55 168.56 288.68 165.6C293.81 162.65 297.88 158.36 300.9 152.75C303.91 147.14 305.42 140.53 305.42 132.93C305.42 125.33 303.91 118.93 300.9 113.38Z" fill="black"/>
<path d="M352.84 178.18C345.3 173.96 339.38 167.95 335.1 160.17C330.82 152.39 328.67 143.37 328.67 133.11C328.67 122.85 330.87 114.02 335.28 106.23C339.68 98.45 345.69 92.47 353.29 88.31C360.89 84.15 369.4 82.07 378.81 82.07C388.22 82.07 396.73 84.15 404.33 88.31C411.93 92.47 417.93 98.42 422.34 106.14C426.74 113.86 428.95 122.85 428.95 133.11C428.95 143.37 426.69 152.39 422.16 160.17C417.64 167.95 411.51 173.96 403.79 178.18C396.07 182.41 387.5 184.52 378.09 184.52C368.68 184.52 360.38 182.41 352.84 178.18ZM394.74 165.87C399.93 163.1 404.12 158.93 407.32 153.38C410.52 147.83 412.12 141.07 412.12 133.11C412.12 125.15 410.55 118.39 407.41 112.84C404.27 107.29 400.17 103.16 395.1 100.44C390.03 97.73 384.54 96.37 378.63 96.37C372.72 96.37 367.07 97.73 362.07 100.44C357.06 103.16 353.05 107.29 350.03 112.84C347.01 118.39 345.51 125.15 345.51 133.11C345.51 141.07 346.99 148.01 349.94 153.56C352.9 159.11 356.85 163.24 361.79 165.96C366.74 168.67 372.17 170.03 378.08 170.03C383.99 170.03 389.54 168.64 394.73 165.87H394.74Z" fill="black"/>
<path d="M514.93 92.84C522.41 100.14 526.15 110.67 526.15 124.42V180.79C526.15 181.95 525.21 182.88 524.06 182.88H511.95C510.79 182.88 509.86 181.94 509.86 180.79V126.77C509.86 116.88 507.39 109.3 502.44 104.06C497.49 98.81 490.74 96.19 482.17 96.19C473.6 96.19 466.57 98.9 461.44 104.34C456.31 109.77 453.75 117.67 453.75 128.05V180.8C453.75 181.96 452.81 182.89 451.66 182.89H439.37C438.21 182.89 437.28 181.95 437.28 180.8V85.8C437.28 84.64 438.22 83.71 439.37 83.71H451.66C452.82 83.71 453.75 84.65 453.75 85.8V97.83C457.01 92.76 461.44 88.84 467.05 86.07C472.66 83.3 478.85 81.91 485.6 81.91C497.67 81.91 507.44 85.56 514.92 92.86L514.93 92.84Z" fill="black"/>
<path d="M539.52 106.23C543.62 98.57 549.26 92.63 556.44 88.4C563.62 84.18 571.67 82.07 580.6 82.07C588.32 82.07 595.5 83.85 602.14 87.41C608.77 90.97 613.84 95.65 617.34 101.44V51.04C617.34 49.88 618.28 48.95 619.43 48.95H631.9C633.06 48.95 633.99 49.89 633.99 51.04V180.8C633.99 181.96 633.05 182.89 631.9 182.89H619.43C618.27 182.89 617.34 181.95 617.34 180.8V164.25C614.08 170.16 609.25 175.02 602.86 178.82C596.46 182.62 588.98 184.52 580.42 184.52C571.86 184.52 563.61 182.35 556.44 178.01C549.26 173.66 543.62 167.57 539.52 159.73C535.42 151.89 533.36 142.96 533.36 132.94C533.36 122.92 535.41 113.91 539.52 106.24V106.23ZM612.83 113.56C609.81 108.01 605.74 103.76 600.61 100.8C595.48 97.84 589.84 96.37 583.69 96.37C577.54 96.37 571.93 97.82 566.86 100.71C561.79 103.61 557.75 107.83 554.73 113.38C551.71 118.93 550.21 125.45 550.21 132.93C550.21 140.41 551.72 147.14 554.73 152.75C557.74 158.36 561.79 162.65 566.86 165.6C571.93 168.56 577.54 170.04 583.69 170.04C589.84 170.04 595.48 168.56 600.61 165.6C605.74 162.65 609.81 158.36 612.83 152.75C615.85 147.14 617.35 140.59 617.35 133.11C617.35 125.63 615.84 119.11 612.83 113.56Z" fill="black"/>
<path d="M648.07 64.33C645.9 62.16 644.81 59.5 644.81 56.37C644.81 53.24 645.9 50.58 648.07 48.41C650.24 46.24 652.89 45.15 656.03 45.15C659.17 45.15 661.61 46.24 663.72 48.41C665.83 50.58 666.89 53.24 666.89 56.37C666.89 59.5 665.83 62.16 663.72 64.33C661.61 66.5 659.04 67.59 656.03 67.59C653.02 67.59 650.24 66.5 648.07 64.33Z" fill="black"/>
<path d="M661.9 83.7H649.61C648.456 83.7 647.52 84.6357 647.52 85.79V180.8C647.52 181.954 648.456 182.89 649.61 182.89H661.9C663.054 182.89 663.99 181.954 663.99 180.8V85.79C663.99 84.6357 663.054 83.7 661.9 83.7Z" fill="black"/>
<path d="M239.81 206.57H232.1V214.47H228.06V206.57H220.35V202.91H228.06V195.01H232.1V202.91H239.81V206.57Z" fill="black"/>
<path d="M247.97 199.59C248.86 198.07 250.07 196.89 251.6 196.03C253.13 195.18 254.8 194.75 256.62 194.75C258.7 194.75 260.55 195.26 262.17 196.28C263.79 197.3 264.97 198.75 265.7 200.62H261.85C261.34 199.59 260.64 198.82 259.74 198.31C258.84 197.8 257.8 197.55 256.62 197.55C255.33 197.55 254.17 197.84 253.16 198.42C252.15 199 251.35 199.84 250.78 200.92C250.21 202.01 249.92 203.27 249.92 204.72C249.92 206.17 250.2 207.43 250.78 208.52C251.35 209.61 252.14 210.45 253.16 211.04C254.17 211.63 255.33 211.93 256.62 211.93C257.8 211.93 258.84 211.68 259.74 211.17C260.64 210.66 261.34 209.9 261.85 208.86H265.7C264.97 210.73 263.79 212.18 262.17 213.19C260.55 214.2 258.7 214.71 256.62 214.71C254.78 214.71 253.1 214.28 251.59 213.43C250.07 212.58 248.87 211.39 247.98 209.87C247.09 208.35 246.65 206.63 246.65 204.72C246.65 202.81 247.1 201.09 247.98 199.57L247.97 199.59Z" fill="black"/>
<path d="M270.71 213.81C269.53 213.14 268.6 212.21 267.93 211C267.25 209.79 266.92 208.39 266.92 206.8C266.92 205.21 267.27 203.83 267.96 202.61C268.65 201.39 269.6 200.45 270.8 199.8C272 199.15 273.34 198.82 274.82 198.82C276.3 198.82 277.64 199.15 278.84 199.8C280.04 200.46 280.99 201.39 281.68 202.61C282.37 203.83 282.72 205.22 282.72 206.8C282.72 208.38 282.36 209.77 281.65 210.99C280.94 212.21 279.97 213.15 278.74 213.82C277.51 214.48 276.16 214.82 274.68 214.82C273.2 214.82 271.9 214.49 270.71 213.82V213.81ZM276.99 211.43C277.71 211.04 278.3 210.45 278.75 209.66C279.2 208.87 279.43 207.92 279.43 206.79C279.43 205.66 279.21 204.72 278.78 203.94C278.35 203.16 277.78 202.58 277.06 202.18C276.35 201.79 275.58 201.59 274.76 201.59C273.94 201.59 273.17 201.79 272.47 202.18C271.77 202.57 271.21 203.16 270.8 203.94C270.39 204.72 270.18 205.67 270.18 206.79C270.18 208.46 270.6 209.75 271.46 210.66C272.31 211.57 273.39 212.02 274.68 212.02C275.51 212.02 276.28 211.82 277 211.43H276.99Z" fill="black"/>
<path d="M306.66 199.57C307.63 200.08 308.38 200.82 308.94 201.82C309.49 202.81 309.77 204.01 309.77 205.42V214.56H306.59V205.9C306.59 204.51 306.24 203.45 305.55 202.71C304.86 201.97 303.91 201.6 302.71 201.6C301.51 201.6 300.56 201.97 299.86 202.71C299.16 203.45 298.8 204.52 298.8 205.9V214.56H295.62V205.9C295.62 204.51 295.27 203.45 294.58 202.71C293.89 201.97 292.94 201.6 291.74 201.6C290.54 201.6 289.59 201.97 288.89 202.71C288.19 203.45 287.84 204.52 287.84 205.9V214.56H284.63V199.07H287.84V200.84C288.36 200.2 289.03 199.71 289.83 199.35C290.64 198.99 291.5 198.82 292.42 198.82C293.66 198.82 294.76 199.08 295.74 199.61C296.71 200.14 297.46 200.9 297.99 201.89C298.46 200.95 299.19 200.21 300.18 199.65C301.17 199.09 302.24 198.82 303.38 198.82C304.6 198.82 305.69 199.07 306.66 199.58V199.57Z" fill="black"/>
<path d="M317.94 199.54C318.88 199.05 319.94 198.81 321.12 198.81C322.47 198.81 323.7 199.14 324.82 199.81C325.93 200.47 326.81 201.41 327.45 202.61C328.09 203.81 328.41 205.19 328.41 206.74C328.41 208.29 328.09 209.69 327.45 210.91C326.81 212.14 325.94 213.09 324.82 213.78C323.7 214.46 322.47 214.8 321.12 214.8C319.94 214.8 318.89 214.56 317.97 214.08C317.05 213.6 316.3 213.01 315.72 212.29V221.91H312.51V199.05H315.72V201.33C316.26 200.62 317 200.02 317.94 199.53V199.54ZM324.47 203.97C324.03 203.19 323.45 202.6 322.73 202.2C322.01 201.8 321.23 201.59 320.41 201.59C319.59 201.59 318.84 201.8 318.12 202.21C317.4 202.62 316.82 203.22 316.38 204.01C315.94 204.8 315.72 205.73 315.72 206.79C315.72 207.85 315.94 208.79 316.38 209.59C316.82 210.39 317.4 210.99 318.12 211.4C318.84 211.81 319.6 212.02 320.41 212.02C321.22 212.02 322.01 211.81 322.73 211.39C323.45 210.97 324.03 210.36 324.47 209.55C324.91 208.74 325.13 207.81 325.13 206.74C325.13 205.67 324.91 204.75 324.47 203.97Z" fill="black"/>
<path d="M335.41 199.47C336.19 199.03 337.11 198.81 338.18 198.81V202.13H337.36C336.1 202.13 335.15 202.45 334.51 203.09C333.86 203.73 333.54 204.83 333.54 206.41V214.56H330.33V199.07H333.54V201.32C334.01 200.53 334.63 199.92 335.41 199.48V199.47Z" fill="black"/>
<path d="M339.5 202.6C340.15 201.4 341.03 200.47 342.14 199.8C343.25 199.14 344.49 198.8 345.84 198.8C347.06 198.8 348.12 199.04 349.03 199.52C349.94 200 350.67 200.59 351.21 201.31V199.06H354.44V214.55H351.21V212.24C350.67 212.97 349.93 213.58 348.99 214.07C348.05 214.56 346.98 214.8 345.78 214.8C344.45 214.8 343.23 214.46 342.13 213.78C341.02 213.09 340.15 212.14 339.5 210.91C338.85 209.68 338.53 208.29 338.53 206.74C338.53 205.19 338.85 203.81 339.5 202.61V202.6ZM350.55 204.01C350.11 203.22 349.53 202.62 348.82 202.21C348.11 201.8 347.34 201.59 346.51 201.59C345.68 201.59 344.92 201.79 344.2 202.2C343.49 202.6 342.91 203.19 342.47 203.97C342.03 204.75 341.81 205.67 341.81 206.74C341.81 207.81 342.03 208.74 342.47 209.55C342.91 210.36 343.49 210.97 344.21 211.39C344.93 211.81 345.69 212.02 346.5 212.02C347.31 212.02 348.09 211.81 348.81 211.4C349.52 210.99 350.1 210.38 350.54 209.59C350.98 208.79 351.2 207.86 351.2 206.79C351.2 205.72 350.98 204.8 350.54 204.01H350.55Z" fill="black"/>
<path d="M362.38 199.47C363.16 199.03 364.08 198.81 365.15 198.81V202.13H364.33C363.07 202.13 362.12 202.45 361.48 203.09C360.83 203.73 360.51 204.83 360.51 206.41V214.56H357.3V199.07H360.51V201.32C360.98 200.53 361.6 199.92 362.38 199.48V199.47Z" fill="black"/>
<path d="M387.25 208H375.41C375.5 209.24 375.96 210.23 376.79 210.98C377.61 211.73 378.63 212.1 379.83 212.1C381.55 212.1 382.77 211.38 383.49 209.93H386.95C386.48 211.36 385.63 212.52 384.4 213.43C383.17 214.34 381.65 214.79 379.83 214.79C378.35 214.79 377.02 214.46 375.85 213.79C374.68 213.12 373.76 212.19 373.09 210.98C372.42 209.77 372.09 208.37 372.09 206.78C372.09 205.19 372.41 203.79 373.06 202.58C373.71 201.37 374.62 200.44 375.79 199.78C376.96 199.13 378.31 198.8 379.82 198.8C381.33 198.8 382.59 199.12 383.73 199.76C384.87 200.4 385.77 201.29 386.4 202.45C387.03 203.61 387.36 204.93 387.36 206.43C387.36 207.01 387.32 207.54 387.25 208ZM384.02 205.42C384 204.24 383.58 203.29 382.75 202.58C381.93 201.87 380.9 201.51 379.69 201.51C378.58 201.51 377.64 201.86 376.85 202.56C376.06 203.26 375.59 204.22 375.44 205.41H384.02V205.42Z" fill="black"/>
<path d="M401.56 211.69L405.95 199.06H409.35L403.45 214.55H399.63L393.75 199.06H397.18L401.57 211.69H401.56Z" fill="black"/>
<path d="M424.11 208H412.27C412.36 209.24 412.82 210.23 413.65 210.98C414.47 211.73 415.49 212.1 416.69 212.1C418.41 212.1 419.63 211.38 420.35 209.93H423.81C423.34 211.36 422.49 212.52 421.26 213.43C420.03 214.34 418.51 214.79 416.69 214.79C415.21 214.79 413.88 214.46 412.71 213.79C411.54 213.12 410.62 212.19 409.95 210.98C409.28 209.77 408.95 208.37 408.95 206.78C408.95 205.19 409.27 203.79 409.92 202.58C410.57 201.37 411.48 200.44 412.65 199.78C413.82 199.13 415.17 198.8 416.68 198.8C418.19 198.8 419.45 199.12 420.59 199.76C421.73 200.4 422.63 201.29 423.26 202.45C423.89 203.61 424.22 204.93 424.22 206.43C424.22 207.01 424.18 207.54 424.11 208ZM420.87 205.42C420.85 204.24 420.43 203.29 419.6 202.58C418.78 201.87 417.75 201.51 416.54 201.51C415.43 201.51 414.49 201.86 413.7 202.56C412.91 203.26 412.44 204.22 412.29 205.41H420.87V205.42Z" fill="black"/>
<path d="M437.23 199.57C438.2 200.08 438.95 200.82 439.49 201.82C440.03 202.81 440.31 204.01 440.31 205.42V214.56H437.13V205.9C437.13 204.51 436.78 203.45 436.09 202.71C435.4 201.97 434.45 201.6 433.25 201.6C432.05 201.6 431.1 201.97 430.4 202.71C429.7 203.45 429.35 204.52 429.35 205.9V214.56H426.14V199.07H429.35V200.84C429.87 200.2 430.54 199.71 431.36 199.35C432.18 198.99 433.04 198.82 433.96 198.82C435.18 198.82 436.27 199.07 437.24 199.58L437.23 199.57Z" fill="black"/>
<path d="M443.03 202.6C443.68 201.4 444.56 200.47 445.67 199.8C446.78 199.14 448.03 198.8 449.4 198.8C450.41 198.8 451.41 199.02 452.39 199.46C453.37 199.9 454.16 200.49 454.74 201.22V193.74H457.97V214.55H454.74V212.22C454.22 212.97 453.49 213.59 452.56 214.08C451.63 214.57 450.57 214.81 449.37 214.81C448.02 214.81 446.79 214.47 445.67 213.79C444.55 213.1 443.67 212.15 443.03 210.92C442.38 209.69 442.06 208.3 442.06 206.75C442.06 205.2 442.38 203.82 443.03 202.62V202.6ZM454.08 204.01C453.64 203.22 453.06 202.62 452.35 202.21C451.64 201.8 450.87 201.59 450.04 201.59C449.21 201.59 448.45 201.79 447.73 202.2C447.02 202.6 446.44 203.19 446 203.97C445.56 204.75 445.34 205.67 445.34 206.74C445.34 207.81 445.56 208.74 446 209.55C446.44 210.36 447.02 210.97 447.74 211.39C448.46 211.81 449.22 212.02 450.03 212.02C450.84 212.02 451.62 211.81 452.34 211.4C453.05 210.99 453.63 210.38 454.07 209.59C454.51 208.79 454.73 207.86 454.73 206.79C454.73 205.72 454.51 204.8 454.07 204.01H454.08Z" fill="black"/>
<path d="M475.05 208H463.21C463.3 209.24 463.76 210.23 464.59 210.98C465.41 211.73 466.43 212.1 467.63 212.1C469.35 212.1 470.57 211.38 471.29 209.93H474.75C474.28 211.36 473.43 212.52 472.2 213.43C470.97 214.34 469.45 214.79 467.63 214.79C466.15 214.79 464.82 214.46 463.65 213.79C462.48 213.12 461.56 212.19 460.89 210.98C460.22 209.77 459.89 208.37 459.89 206.78C459.89 205.19 460.21 203.79 460.86 202.58C461.51 201.37 462.42 200.44 463.59 199.78C464.76 199.13 466.11 198.8 467.62 198.8C469.13 198.8 470.39 199.12 471.53 199.76C472.67 200.4 473.57 201.29 474.2 202.45C474.83 203.61 475.16 204.93 475.16 206.43C475.16 207.01 475.12 207.54 475.05 208ZM471.82 205.42C471.8 204.24 471.38 203.29 470.55 202.58C469.73 201.87 468.7 201.51 467.49 201.51C466.38 201.51 465.44 201.86 464.65 202.56C463.86 203.26 463.39 204.22 463.24 205.41H471.82V205.42Z" fill="black"/>
<path d="M482.16 199.47C482.94 199.03 483.86 198.81 484.93 198.81V202.13H484.11C482.85 202.13 481.9 202.45 481.26 203.09C480.61 203.73 480.29 204.83 480.29 206.41V214.56H477.08V199.07H480.29V201.32C480.76 200.53 481.38 199.92 482.16 199.48V199.47Z" fill="black"/>
<path d="M507.03 208H495.19C495.28 209.24 495.74 210.23 496.57 210.98C497.39 211.73 498.41 212.1 499.61 212.1C501.33 212.1 502.55 211.38 503.27 209.93H506.73C506.26 211.36 505.41 212.52 504.18 213.43C502.95 214.34 501.43 214.79 499.61 214.79C498.13 214.79 496.8 214.46 495.63 213.79C494.46 213.12 493.54 212.19 492.87 210.98C492.2 209.77 491.87 208.37 491.87 206.78C491.87 205.19 492.19 203.79 492.84 202.58C493.49 201.37 494.4 200.44 495.57 199.78C496.74 199.13 498.09 198.8 499.6 198.8C501.11 198.8 502.37 199.12 503.51 199.76C504.65 200.4 505.55 201.29 506.18 202.45C506.82 203.6 507.14 204.93 507.14 206.43C507.14 207.01 507.1 207.54 507.03 208ZM503.79 205.42C503.77 204.24 503.35 203.29 502.52 202.58C501.7 201.87 500.67 201.51 499.46 201.51C498.35 201.51 497.41 201.86 496.62 202.56C495.83 203.26 495.36 204.22 495.21 205.41H503.79V205.42Z" fill="black"/>
<path d="M520.15 199.57C521.12 200.08 521.87 200.82 522.41 201.82C522.95 202.81 523.23 204.01 523.23 205.42V214.56H520.05V205.9C520.05 204.51 519.7 203.45 519.01 202.71C518.32 201.97 517.37 201.6 516.17 201.6C514.97 201.6 514.02 201.97 513.32 202.71C512.62 203.45 512.27 204.52 512.27 205.9V214.56H509.06V199.07H512.27V200.84C512.79 200.2 513.46 199.71 514.28 199.35C515.1 198.99 515.96 198.82 516.88 198.82C518.1 198.82 519.19 199.07 520.16 199.58L520.15 199.57Z" fill="black"/>
<path d="M529.47 201.68V210.25C529.47 210.83 529.61 211.25 529.88 211.5C530.15 211.75 530.61 211.88 531.27 211.88H533.24V214.55H530.71C529.27 214.55 528.16 214.21 527.39 213.54C526.62 212.86 526.24 211.77 526.24 210.25V201.68H524.41V199.07H526.24V195.22H529.47V199.07H533.24V201.68H529.47Z" fill="black"/>
<path d="M539.9 199.47C540.68 199.03 541.6 198.81 542.67 198.81V202.13H541.85C540.59 202.13 539.64 202.45 539 203.09C538.35 203.73 538.03 204.83 538.03 206.41V214.56H534.82V199.07H538.03V201.32C538.5 200.53 539.12 199.92 539.9 199.48V199.47Z" fill="black"/>
<path d="M558.2 208H546.36C546.45 209.24 546.91 210.23 547.74 210.98C548.56 211.73 549.58 212.1 550.78 212.1C552.5 212.1 553.72 211.38 554.44 209.93H557.9C557.43 211.36 556.58 212.52 555.35 213.43C554.12 214.34 552.6 214.79 550.78 214.79C549.3 214.79 547.97 214.46 546.8 213.79C545.63 213.12 544.71 212.19 544.04 210.98C543.37 209.77 543.04 208.37 543.04 206.78C543.04 205.19 543.36 203.79 544.01 202.58C544.66 201.37 545.57 200.44 546.74 199.78C547.91 199.13 549.26 198.8 550.77 198.8C552.28 198.8 553.54 199.12 554.68 199.76C555.82 200.4 556.72 201.29 557.35 202.45C557.99 203.6 558.31 204.93 558.31 206.43C558.31 207.01 558.27 207.54 558.2 208ZM554.96 205.42C554.94 204.24 554.52 203.29 553.69 202.58C552.87 201.87 551.84 201.51 550.63 201.51C549.52 201.51 548.58 201.86 547.79 202.56C547 203.26 546.53 204.22 546.38 205.41H554.96V205.42Z" fill="black"/>
<path d="M566.42 202.6C567.07 201.4 567.95 200.47 569.06 199.8C570.17 199.14 571.41 198.8 572.76 198.8C573.98 198.8 575.04 199.04 575.95 199.52C576.86 200 577.59 200.59 578.13 201.31V199.06H581.36V214.55H578.13V212.24C577.59 212.97 576.85 213.58 575.91 214.07C574.97 214.56 573.9 214.8 572.7 214.8C571.37 214.8 570.15 214.46 569.05 213.78C567.94 213.09 567.07 212.14 566.42 210.91C565.77 209.68 565.45 208.29 565.45 206.74C565.45 205.19 565.77 203.81 566.42 202.61V202.6ZM577.47 204.01C577.03 203.22 576.45 202.62 575.74 202.21C575.03 201.8 574.26 201.59 573.43 201.59C572.6 201.59 571.84 201.79 571.12 202.2C570.41 202.6 569.83 203.19 569.39 203.97C568.95 204.75 568.73 205.67 568.73 206.74C568.73 207.81 568.95 208.74 569.39 209.55C569.83 210.36 570.41 210.97 571.13 211.39C571.85 211.81 572.61 212.02 573.42 212.02C574.23 212.02 575.01 211.81 575.73 211.4C576.44 210.99 577.02 210.38 577.46 209.59C577.9 208.79 578.12 207.86 578.12 206.79C578.12 205.72 577.9 204.8 577.46 204.01H577.47Z" fill="black"/>
<path d="M606.25 199.57C607.22 200.08 607.97 200.82 608.53 201.82C609.08 202.81 609.36 204.01 609.36 205.42V214.56H606.18V205.9C606.18 204.51 605.83 203.45 605.14 202.71C604.45 201.97 603.5 201.6 602.3 201.6C601.1 201.6 600.15 201.97 599.45 202.71C598.75 203.45 598.39 204.52 598.39 205.9V214.56H595.21V205.9C595.21 204.51 594.86 203.45 594.17 202.71C593.48 201.97 592.53 201.6 591.33 201.6C590.13 201.6 589.18 201.97 588.48 202.71C587.78 203.45 587.43 204.52 587.43 205.9V214.56H584.22V199.07H587.43V200.84C587.95 200.2 588.62 199.71 589.42 199.35C590.23 198.99 591.09 198.82 592.01 198.82C593.25 198.82 594.35 199.08 595.33 199.61C596.3 200.14 597.05 200.9 597.58 201.89C598.05 200.95 598.78 200.21 599.77 199.65C600.76 199.09 601.83 198.82 602.97 198.82C604.19 198.82 605.28 199.07 606.25 199.58V199.57Z" fill="black"/>
<path d="M612.22 196.42C611.83 196.03 611.63 195.54 611.63 194.96C611.63 194.38 611.83 193.89 612.22 193.5C612.61 193.11 613.1 192.91 613.68 192.91C614.26 192.91 614.72 193.11 615.11 193.5C615.5 193.89 615.7 194.38 615.7 194.96C615.7 195.54 615.5 196.03 615.11 196.42C614.72 196.81 614.24 197.01 613.68 197.01C613.12 197.01 612.61 196.81 612.22 196.42ZM615.25 199.06V214.55H612.04V199.06H615.25Z" fill="black"/>
<path d="M627.62 199.53C628.55 200.01 629.28 200.6 629.8 201.32V199.07H633.03V214.81C633.03 216.24 632.73 217.51 632.13 218.62C631.53 219.74 630.66 220.61 629.53 221.25C628.4 221.89 627.04 222.21 625.47 222.21C623.37 222.21 621.63 221.72 620.24 220.73C618.85 219.75 618.06 218.41 617.88 216.72H621.06C621.3 217.53 621.82 218.18 622.62 218.67C623.42 219.17 624.37 219.41 625.47 219.41C626.76 219.41 627.81 219.02 628.6 218.23C629.4 217.44 629.8 216.3 629.8 214.8V212.21C629.26 212.94 628.52 213.56 627.59 214.05C626.66 214.55 625.61 214.79 624.43 214.79C623.08 214.79 621.85 214.45 620.73 213.77C619.61 213.08 618.73 212.13 618.09 210.9C617.44 209.67 617.12 208.28 617.12 206.73C617.12 205.18 617.44 203.8 618.09 202.6C618.74 201.4 619.62 200.47 620.73 199.8C621.84 199.14 623.08 198.8 624.43 198.8C625.63 198.8 626.69 199.04 627.62 199.52V199.53ZM629.14 204.01C628.7 203.22 628.12 202.62 627.41 202.21C626.7 201.8 625.93 201.59 625.1 201.59C624.27 201.59 623.51 201.79 622.79 202.2C622.08 202.6 621.5 203.19 621.06 203.97C620.62 204.75 620.4 205.67 620.4 206.74C620.4 207.81 620.62 208.74 621.06 209.55C621.5 210.36 622.08 210.97 622.8 211.39C623.52 211.81 624.28 212.02 625.09 212.02C625.9 212.02 626.68 211.81 627.4 211.4C628.11 210.99 628.69 210.38 629.13 209.59C629.57 208.79 629.79 207.86 629.79 206.79C629.79 205.72 629.57 204.8 629.13 204.01H629.14Z" fill="black"/>
<path d="M638.77 213.81C637.59 213.14 636.66 212.21 635.99 211C635.31 209.79 634.98 208.39 634.98 206.8C634.98 205.21 635.33 203.83 636.02 202.61C636.71 201.39 637.66 200.45 638.86 199.8C640.06 199.15 641.4 198.82 642.88 198.82C644.36 198.82 645.7 199.15 646.9 199.8C648.1 200.46 649.05 201.39 649.74 202.61C650.43 203.83 650.78 205.22 650.78 206.8C650.78 208.38 650.42 209.77 649.71 210.99C649 212.21 648.03 213.15 646.8 213.82C645.57 214.48 644.22 214.82 642.74 214.82C641.26 214.82 639.96 214.49 638.77 213.82V213.81ZM645.05 211.43C645.77 211.04 646.36 210.45 646.81 209.66C647.26 208.87 647.49 207.92 647.49 206.79C647.49 205.66 647.27 204.72 646.84 203.94C646.41 203.16 645.84 202.58 645.12 202.18C644.41 201.79 643.64 201.59 642.82 201.59C642 201.59 641.23 201.79 640.53 202.18C639.83 202.57 639.27 203.16 638.86 203.94C638.45 204.72 638.24 205.67 638.24 206.79C638.24 208.46 638.66 209.75 639.52 210.66C640.37 211.57 641.45 212.02 642.74 212.02C643.57 212.02 644.34 211.82 645.06 211.43H645.05Z" fill="black"/>
<path d="M654.91 214.15C653.94 213.71 653.18 213.11 652.62 212.35C652.06 211.59 651.76 210.74 651.72 209.81H655.04C655.1 210.47 655.41 211.01 655.98 211.45C656.55 211.89 657.27 212.11 658.13 212.11C658.99 212.11 659.73 211.94 660.22 211.59C660.72 211.24 660.97 210.8 660.97 210.25C660.97 209.67 660.69 209.24 660.14 208.96C659.59 208.68 658.71 208.37 657.51 208.03C656.35 207.71 655.4 207.4 654.67 207.1C653.94 206.8 653.31 206.34 652.77 205.72C652.23 205.1 651.97 204.29 651.97 203.27C651.97 202.44 652.21 201.69 652.7 201.01C653.19 200.32 653.89 199.79 654.79 199.39C655.7 199 656.74 198.8 657.93 198.8C659.69 198.8 661.11 199.25 662.19 200.14C663.27 201.03 663.85 202.24 663.92 203.78H660.71C660.66 203.09 660.37 202.53 659.87 202.12C659.37 201.71 658.68 201.5 657.82 201.5C656.96 201.5 656.33 201.66 655.88 201.98C655.43 202.3 655.2 202.72 655.2 203.24C655.2 203.65 655.35 204 655.65 204.28C655.95 204.56 656.31 204.78 656.75 204.94C657.18 205.1 657.82 205.3 658.66 205.54C659.78 205.84 660.71 206.14 661.43 206.45C662.15 206.76 662.77 207.21 663.3 207.81C663.82 208.41 664.1 209.21 664.12 210.2C664.12 211.08 663.88 211.87 663.39 212.56C662.9 213.25 662.21 213.8 661.32 214.19C660.43 214.58 659.38 214.78 658.18 214.78C656.98 214.78 655.87 214.56 654.9 214.12L654.91 214.15Z" fill="black"/>
<path d="M239.81 206.57H232.1V214.47H228.06V206.57H220.35V202.91H228.06V195.01H232.1V202.91H239.81V206.57Z" fill="black"/>
</g>
<defs>
<clipPath id="clip0_296_1982">
<rect width="666.89" height="222.2" fill="white"/>
</clipPath>
</defs>
</svg>
